REM DIRINDEX 1\2,1\4,1\5,1\6,1\7,1\3\8,1\3\9,1\3\10
REM DIRNAME cjc113,folder01,folder02,folder03,folder04,folder05,folder06,folder07,folder08,folder09
TITLE ""
FILE "DB4500_5th_3B_07.mp3" MP3
  TRACK 01 AUDIO
    TITLE "0:"
    INDEX 01 00:00:00
  TRACK 02 AUDIO
    TITLE "8:cjc113_2054"
    INDEX 01 00:00:05
  TRACK 03 AUDIO
    TITLE "0:"
    INDEX 01 00:01:32
  TRACK 04 AUDIO
    TITLE "9:cjc113_2055"
    INDEX 01 00:01:52
  TRACK 05 AUDIO
    TITLE "0:"
    INDEX 01 00:03:02
  TRACK 06 AUDIO
    TITLE "10:cjc113_2056"
    INDEX 01 00:03:21
  TRACK 07 AUDIO
    TITLE "0:"
    INDEX 01 00:06:08
  TRACK 08 AUDIO
    TITLE "8:cjc113_2057"
    INDEX 01 00:06:49
  TRACK 09 AUDIO
    TITLE "0:"
    INDEX 01 00:07:54
  TRACK 10 AUDIO
    TITLE "9:cjc113_2058"
    INDEX 01 00:07:72
  TRACK 11 AUDIO
    TITLE "0:"
    INDEX 01 00:09:12
  TRACK 12 AUDIO
    TITLE "10:cjc113_2059"
    INDEX 01 00:09:32
  TRACK 13 AUDIO
    TITLE "0:"
    INDEX 01 00:13:37
  TRACK 14 AUDIO
    TITLE "8:cjc113_2060"
    INDEX 01 00:14:06
  TRACK 15 AUDIO
    TITLE "0:"
    INDEX 01 00:15:17
  TRACK 16 AUDIO
    TITLE "9:cjc113_2061"
    INDEX 01 00:15:40
  TRACK 17 AUDIO
    TITLE "0:"
    INDEX 01 00:16:51
  TRACK 18 AUDIO
    TITLE "10:cjc113_2062"
    INDEX 01 00:16:71
  TRACK 19 AUDIO
    TITLE "0:"
    INDEX 01 00:19:32
  TRACK 20 AUDIO
    TITLE "10:cjc113_2063"
    INDEX 01 00:19:73
  TRACK 21 AUDIO
    TITLE "0:"
    INDEX 01 00:22:29
  TRACK 22 AUDIO
    TITLE "8:cjc113_2064"
    INDEX 01 00:22:72
  TRACK 23 AUDIO
    TITLE "0:"
    INDEX 01 00:24:33
  TRACK 24 AUDIO
    TITLE "9:cjc113_2065"
    INDEX 01 00:24:53
  TRACK 25 AUDIO
    TITLE "0:"
    INDEX 01 00:26:32
  TRACK 26 AUDIO
    TITLE "10:cjc113_2066"
    INDEX 01 00:26:50
  TRACK 27 AUDIO
    TITLE "0:"
    INDEX 01 00:29:34
  TRACK 28 AUDIO
    TITLE "8:cjc113_2067"
    INDEX 01 00:30:03
  TRACK 29 AUDIO
    TITLE "0:"
    INDEX 01 00:31:29
  TRACK 30 AUDIO
    TITLE "9:cjc113_2068"
    INDEX 01 00:31:49
  TRACK 31 AUDIO
    TITLE "0:"
    INDEX 01 00:33:17
  TRACK 32 AUDIO
    TITLE "10:cjc113_2069"
    INDEX 01 00:33:34
  TRACK 33 AUDIO
    TITLE "0:"
    INDEX 01 00:37:44
  TRACK 34 AUDIO
    TITLE "8:cjc113_2070"
    INDEX 01 00:38:12
  TRACK 35 AUDIO
    TITLE "0:"
    INDEX 01 00:39:35
  TRACK 36 AUDIO
    TITLE "9:cjc113_2071"
    INDEX 01 00:39:54
  TRACK 37 AUDIO
    TITLE "0:"
    INDEX 01 00:41:51
  TRACK 38 AUDIO
    TITLE "10:cjc113_2072"
    INDEX 01 00:41:73
  TRACK 39 AUDIO
    TITLE "0:"
    INDEX 01 00:44:56
  TRACK 40 AUDIO
    TITLE "8:cjc113_2073"
    INDEX 01 00:45:26
  TRACK 41 AUDIO
    TITLE "0:"
    INDEX 01 00:46:53
  TRACK 42 AUDIO
    TITLE "9:cjc113_2074"
    INDEX 01 00:46:68
  TRACK 43 AUDIO
    TITLE "0:"
    INDEX 01 00:48:44
  TRACK 44 AUDIO
    TITLE "10:cjc113_2075"
    INDEX 01 00:48:63
  TRACK 45 AUDIO
    TITLE "0:"
    INDEX 01 00:52:71
  TRACK 46 AUDIO
    TITLE "8:cjc113_2076"
    INDEX 01 00:53:35
  TRACK 47 AUDIO
    TITLE "0:"
    INDEX 01 00:54:62
  TRACK 48 AUDIO
    TITLE "9:cjc113_2077"
    INDEX 01 00:55:08
  TRACK 49 AUDIO
    TITLE "0:"
    INDEX 01 00:56:39
  TRACK 50 AUDIO
    TITLE "10:cjc113_2078"
    INDEX 01 00:56:59
  TRACK 51 AUDIO
    TITLE "0:"
    INDEX 01 01:00:08
  TRACK 52 AUDIO
    TITLE "8:cjc113_2079"
    INDEX 01 01:00:57
  TRACK 53 AUDIO
    TITLE "0:"
    INDEX 01 01:02:10
  TRACK 54 AUDIO
    TITLE "9:cjc113_2080"
    INDEX 01 01:02:34
  TRACK 55 AUDIO
    TITLE "0:"
    INDEX 01 01:03:53
  TRACK 56 AUDIO
    TITLE "10:cjc113_2081"
    INDEX 01 01:04:01
  TRACK 57 AUDIO
    TITLE "0:"
    INDEX 01 01:08:05
  TRACK 58 AUDIO
    TITLE "8:cjc113_2082"
    INDEX 01 01:08:52
  TRACK 59 AUDIO
    TITLE "0:"
    INDEX 01 01:09:69
  TRACK 60 AUDIO
    TITLE "9:cjc113_2083"
    INDEX 01 01:10:12
  TRACK 61 AUDIO
    TITLE "0:"
    INDEX 01 01:11:52
  TRACK 62 AUDIO
    TITLE "10:cjc113_2084"
    INDEX 01 01:11:74
  TRACK 63 AUDIO
    TITLE "0:"
    INDEX 01 01:15:17
  TRACK 64 AUDIO
    TITLE "10:cjc113_2085"
    INDEX 01 01:15:31
  TRACK 65 AUDIO
    TITLE "0:"
    INDEX 01 01:18:49
  TRACK 66 AUDIO
    TITLE "8:cjc113_2086"
    INDEX 01 01:19:23
  TRACK 67 AUDIO
    TITLE "0:"
    INDEX 01 01:20:38
  TRACK 68 AUDIO
    TITLE "9:cjc113_2087"
    INDEX 01 01:20:63
  TRACK 69 AUDIO
    TITLE "0:"
    INDEX 01 01:22:29
  TRACK 70 AUDIO
    TITLE "10:cjc113_2088"
    INDEX 01 01:22:52
  TRACK 71 AUDIO
    TITLE "0:"
    INDEX 01 01:25:68
  TRACK 72 AUDIO
    TITLE "10:cjc113_2089"
    INDEX 01 01:26:34
  TRACK 73 AUDIO
    TITLE "0:"
    INDEX 01 01:29:35
  TRACK 74 AUDIO
    TITLE "8:cjc113_2090"
    INDEX 01 01:30:07
  TRACK 75 AUDIO
    TITLE "0:"
    INDEX 01 01:31:20
  TRACK 76 AUDIO
    TITLE "9:cjc113_2091"
    INDEX 01 01:31:41
  TRACK 77 AUDIO
    TITLE "0:"
    INDEX 01 01:32:49
  TRACK 78 AUDIO
    TITLE "10:cjc113_2092"
    INDEX 01 01:32:72
  TRACK 79 AUDIO
    TITLE "0:"
    INDEX 01 01:36:43
